<svg xmlns="http://www.w3.org/2000/svg" fill="none" viewBox="0 0 78 129"><g fill="#111" clip-path="url(#a)"><path d="M23.302 37.404H38.99c3.816 0 8.85 0 11.448 1.578 2.85 1.696 5.088 4.781 5.088 9.03 0 4.6-2.418 8.055-6.423 9.688v.126c5.332 1.091 8.237 5.088 8.237 10.42 0 6.36-4.547 12.42-13.144 12.42H23.302V37.405Zm5.756 18.592h11.518c6.54 0 9.21-2.363 9.21-6.91 0-5.998-4.24-6.846-9.21-6.846H29.058v13.756Zm0 19.81H43.48c4.963 0 8.12-3.03 8.12-7.75 0-5.637-4.547-7.207-9.392-7.207h-13.15v14.958Z"/><path d="M72.062 59.043c0 18.17-14.73 32.899-32.907 32.899-18.169 0-32.899-14.73-32.899-32.899 0-18.17 14.73-32.899 32.899-32.899 18.177.008 32.907 14.738 32.907 32.899Zm-32.9-37.909c-20.924 0-37.892 16.968-37.892 37.893S18.238 96.92 39.163 96.92c20.933 0 37.9-16.968 37.9-37.893s-16.967-37.892-37.9-37.892Zm37.815 83.787H1.341v4.97h75.636v-4.97Zm-2.363-5.473c.094 0 .18-.007.267-.007a.91.91 0 0 0 .22-.048.376.376 0 0 0 .156-.133.447.447 0 0 0 .055-.244.404.404 0 0 0-.047-.212.277.277 0 0 0-.133-.117.59.59 0 0 0-.189-.063c-.07-.008-.133-.008-.212-.008h-.541v.84h.424v-.008Zm.18-1.177c.314 0 .542.062.699.188.15.126.228.314.228.573 0 .244-.071.409-.197.526a.932.932 0 0 1-.502.197l.754 1.162h-.44l-.722-1.139h-.432v1.139h-.416v-2.639h1.028v-.007Zm-1.853 2.08a1.838 1.838 0 0 0 .982 1.029c.22.094.47.141.73.141.267 0 .51-.047.73-.141a1.85 1.85 0 0 0 .589-.408c.165-.173.298-.377.385-.621a2.022 2.022 0 0 0 0-1.523 2.029 2.029 0 0 0-.385-.612 1.868 1.868 0 0 0-1.32-.55 1.865 1.865 0 0 0-1.318.55 1.781 1.781 0 0 0-.393.612 1.992 1.992 0 0 0-.141.762c-.008.267.04.526.141.761Zm-.377-1.656c.118-.275.283-.503.487-.707.204-.204.448-.353.722-.471.275-.118.574-.173.872-.173a2.255 2.255 0 0 1 1.594.643c.204.205.377.44.487.708.125.274.18.573.18.895 0 .322-.055.62-.18.895a2.214 2.214 0 0 1-.487.722 2.17 2.17 0 0 1-.707.479c-.282.11-.573.165-.887.165-.306 0-.597-.055-.871-.165a2.154 2.154 0 0 1-.723-.479 2.214 2.214 0 0 1-.487-.722 2.12 2.12 0 0 1-.172-.895 2.01 2.01 0 0 1 .172-.895ZM10.512 4.473c-.181-.29-.4-.542-.668-.754a3.134 3.134 0 0 0-1.97-.69c-.676 0-1.249.133-1.728.392A3.21 3.21 0 0 0 5 4.473c-.29.44-.51.942-.644 1.508a7.562 7.562 0 0 0-.204 1.743c0 .573.062 1.13.204 1.672.133.542.345 1.029.644 1.468.29.432.675.786 1.146 1.045.471.259 1.044.392 1.727.392.919 0 1.641-.282 2.152-.84.518-.565.832-1.303.95-2.222h2.913c-.079.856-.275 1.625-.597 2.316a5.472 5.472 0 0 1-1.264 1.76 5.47 5.47 0 0 1-1.837 1.114 6.827 6.827 0 0 1-2.317.385c-1.044 0-1.986-.18-2.826-.55a5.999 5.999 0 0 1-2.12-1.507 6.642 6.642 0 0 1-1.32-2.254 8.272 8.272 0 0 1-.463-2.787c0-1.02.15-1.971.464-2.843A6.787 6.787 0 0 1 2.927 2.59a5.985 5.985 0 0 1 2.12-1.532C5.879.688 6.82.5 7.873.5c.754 0 1.469.11 2.136.322.668.22 1.272.534 1.798.95.526.416.966.927 1.311 1.539.346.612.566 1.319.652 2.104h-2.913a2.432 2.432 0 0 0-.345-.942Zm7.294 7.647c.408.393.997.597 1.758.597.55 0 1.021-.133 1.422-.408.392-.275.636-.565.73-.871h2.395c-.385 1.185-.974 2.041-1.767 2.551-.793.51-1.75.77-2.874.77-.777 0-1.484-.126-2.104-.377a4.502 4.502 0 0 1-1.594-1.06 4.725 4.725 0 0 1-1.005-1.649 6.04 6.04 0 0 1-.353-2.104c0-.738.117-1.43.36-2.065a4.859 4.859 0 0 1 1.037-1.657 4.895 4.895 0 0 1 1.602-1.1c.62-.266 1.303-.4 2.057-.4.84 0 1.579.165 2.207.487.628.33 1.138.762 1.538 1.311.401.55.692 1.178.872 1.877.18.699.244 1.437.189 2.206H17.13c.04.856.26 1.5.676 1.893Zm3.07-5.205c-.33-.353-.825-.534-1.484-.534-.432 0-.793.07-1.084.22-.29.149-.518.33-.69.542-.173.22-.291.447-.362.69-.07.244-.11.456-.126.652h4.429c-.126-.69-.354-1.217-.683-1.57Zm7.215-2.325v1.838h.04c.125-.306.298-.589.518-.856.22-.259.463-.487.746-.667.282-.18.58-.33.903-.432.322-.102.651-.15.997-.15.18 0 .377.032.596.095v2.528a4.769 4.769 0 0 0-.463-.062c-.18-.016-.353-.032-.518-.032-.495 0-.919.086-1.264.251a2.16 2.16 0 0 0-.832.683c-.212.291-.362.62-.448 1.005a5.716 5.716 0 0 0-.133 1.249v4.468h-2.717V4.59h2.575Zm11.072 0v1.822h-1.995v4.908c0 .463.079.77.228.918.149.15.463.228.919.228.157 0 .298-.008.44-.016a5.54 5.54 0 0 0 .4-.054V14.5a6.774 6.774 0 0 1-.77.078c-.282.016-.557.024-.824.024a8.13 8.13 0 0 1-1.194-.087 2.676 2.676 0 0 1-.997-.337c-.29-.165-.51-.4-.683-.707-.165-.306-.251-.707-.251-1.209V6.42h-1.65V4.6h1.65V1.63h2.717v2.968h2.01V4.59Zm1.585-1.53V.814h2.717V3.06h-2.717Zm2.717 1.53v9.902h-2.717V4.59h2.717Zm1.085 1.822V4.591h1.625v-.77c0-.88.274-1.601.824-2.167.55-.565 1.382-.84 2.489-.84.243 0 .487.008.73.031.244.016.48.04.707.048v2.033a8.214 8.214 0 0 0-.997-.055c-.37 0-.636.087-.793.26-.157.172-.236.463-.236.87V4.6h1.877v1.82h-1.877v8.088h-2.724V6.42h-1.626v-.008Zm8.063-3.352V.814h2.717V3.06h-2.717Zm2.724 1.53v9.902h-2.724V4.59h2.724Zm4.288 7.53c.408.393.997.597 1.758.597.55 0 1.021-.133 1.422-.408.392-.275.636-.565.73-.871h2.395c-.385 1.185-.974 2.041-1.76 2.551-.792.51-1.75.77-2.873.77-.777 0-1.484-.126-2.104-.377a4.503 4.503 0 0 1-1.594-1.06 4.724 4.724 0 0 1-1.005-1.649 6.037 6.037 0 0 1-.354-2.104c0-.738.126-1.43.362-2.065.243-.66.589-1.21 1.036-1.673a4.893 4.893 0 0 1 1.602-1.099c.62-.267 1.303-.4 2.057-.4.84 0 1.578.165 2.206.486.629.33 1.139.762 1.54 1.312.4.55.69 1.178.87 1.876a7.06 7.06 0 0 1 .197 2.207h-7.145c.031.871.251 1.515.66 1.908Zm3.078-5.205c-.322-.353-.825-.534-1.484-.534-.432 0-.794.07-1.084.22-.29.149-.518.33-.69.542-.174.22-.291.447-.362.69-.07.244-.11.456-.126.652h4.42c-.125-.69-.352-1.217-.674-1.57Zm11.659 6.321c-.322.534-.738.926-1.256 1.162-.518.235-1.1.353-1.75.353-.739 0-1.39-.141-1.956-.432a3.879 3.879 0 0 1-1.39-1.17 5.495 5.495 0 0 1-.824-1.696 6.991 6.991 0 0 1-.275-1.994c0-.668.094-1.303.275-1.924a5.04 5.04 0 0 1 .824-1.64 4.099 4.099 0 0 1 1.366-1.14c.55-.29 1.186-.431 1.916-.431.59 0 1.147.125 1.673.377A2.9 2.9 0 0 1 74.22 5.8h.04V.822h2.716V14.5h-2.583v-1.264h-.032Zm-.117-4.9a2.882 2.882 0 0 0-.393-.997 2.196 2.196 0 0 0-.722-.699c-.29-.18-.668-.267-1.107-.267-.44 0-.825.087-1.131.267-.306.18-.55.416-.738.707-.18.29-.314.628-.4 1.005a5.262 5.262 0 0 0 .007 2.324c.087.385.236.722.432 1.028.196.299.448.542.746.73.298.19.66.276 1.084.276.447 0 .816-.087 1.122-.267a2.06 2.06 0 0 0 .723-.723c.18-.298.306-.644.385-1.02.078-.385.117-.778.117-1.186a6.363 6.363 0 0 0-.125-1.178ZM7.976 119.651c-.134-.958-1.053-1.688-2.105-1.688-1.9 0-2.614 1.617-2.614 3.306 0 1.601.714 3.219 2.614 3.219 1.296 0 2.026-.888 2.183-2.159h2.057c-.22 2.402-1.876 3.941-4.24 3.941-2.983 0-4.734-2.23-4.734-5.001 0-2.859 1.75-5.088 4.734-5.088 2.12 0 3.895 1.24 4.154 3.47h-2.05Zm6.556-.769c2.198 0 3.611 1.452 3.611 3.682 0 2.214-1.413 3.667-3.611 3.667-2.183 0-3.604-1.461-3.604-3.667 0-2.222 1.42-3.682 3.604-3.682Zm0 5.912c1.311 0 1.696-1.123 1.696-2.222 0-1.123-.393-2.238-1.696-2.238-1.296 0-1.688 1.123-1.688 2.238 0 1.099.392 2.222 1.688 2.222Zm4.798-5.732h1.82v1.296h.032c.346-.88 1.296-1.484 2.23-1.484.134 0 .299.023.416.063v1.782a3.721 3.721 0 0 0-.69-.063c-1.406 0-1.893 1.013-1.893 2.238v3.141h-1.916v-6.973Zm5.244.008h1.821v.887h.024c.455-.738 1.21-1.075 2.073-1.075 2.19 0 3.172 1.766 3.172 3.745 0 1.861-1.02 3.604-3.062 3.604-.833 0-1.634-.361-2.089-1.052h-.031v3.321h-1.916v-9.43h.008Zm5.174 3.51c0-1.107-.448-2.254-1.672-2.254-1.257 0-1.657 1.123-1.657 2.254 0 1.13.432 2.214 1.672 2.214 1.257 0 1.657-1.084 1.657-2.214Zm6.116-3.698c2.199 0 3.62 1.452 3.62 3.682 0 2.214-1.421 3.667-3.62 3.667-2.182 0-3.596-1.461-3.596-3.667 0-2.222 1.414-3.682 3.596-3.682Zm0 5.912c1.312 0 1.704-1.123 1.704-2.222 0-1.123-.392-2.238-1.703-2.238-1.296 0-1.689 1.123-1.689 2.238.008 1.099.4 2.222 1.688 2.222Zm4.806-5.732h1.822v1.296h.03c.346-.88 1.297-1.484 2.223-1.484.134 0 .298.023.416.063v1.782a3.596 3.596 0 0 0-.69-.063c-1.406 0-1.893 1.013-1.893 2.238v3.141h-1.916v-6.973h.008Zm5.057 2.152c.11-1.799 1.711-2.332 3.282-2.332 1.39 0 3.062.306 3.062 1.978v3.628c0 .636.063 1.264.243 1.554h-1.947c-.063-.219-.126-.447-.133-.675-.605.636-1.492.864-2.348.864-1.32 0-2.372-.66-2.372-2.089 0-1.578 1.186-1.955 2.372-2.12 1.177-.172 2.269-.133 2.269-.918 0-.825-.573-.943-1.24-.943-.73 0-1.202.299-1.273 1.053h-1.916Zm4.42 1.421c-.33.282-.997.298-1.594.408-.597.118-1.13.322-1.13 1.029 0 .714.55.887 1.177.887 1.492 0 1.555-1.186 1.555-1.602v-.722h-.008Zm5.787-3.565h1.406v1.28h-1.406v3.455c0 .651.165.808.809.808.204 0 .392-.015.597-.055v1.5a7.232 7.232 0 0 1-1.123.071c-1.17 0-2.199-.275-2.199-1.657v-4.114h-1.162v-1.28h1.162v-2.089h1.916v2.081Zm4.766-1.076h-1.916v-1.578H60.7v1.578Zm-1.916 1.076H60.7v6.972h-1.916v-6.972Zm6.8-.188c2.198 0 3.62 1.452 3.62 3.682 0 2.214-1.421 3.667-3.62 3.667-2.183 0-3.596-1.461-3.596-3.667 0-2.222 1.413-3.682 3.596-3.682Zm0 5.912c1.311 0 1.704-1.123 1.704-2.222 0-1.123-.393-2.238-1.704-2.238-1.296 0-1.688 1.123-1.688 2.238 0 1.099.392 2.222 1.688 2.222Zm4.852-5.724h1.822v.974h.04c.486-.786 1.318-1.162 2.135-1.162 2.034 0 2.552 1.146 2.552 2.873v4.287h-1.916v-3.941c0-1.147-.338-1.712-1.225-1.712-1.044 0-1.484.581-1.484 2.002v3.659h-1.916v-6.98h-.008Z"/></g><defs><clipPath id="a"><path fill="#fff" d="M.6 0h77v129H.6z"/></clipPath></defs></svg>