<svg fill="none" viewBox="0 0 34 40" xmlns="http://www.w3.org/2000/svg" class="prefix__h-20 prefix__w-20 prefix__shrink-0"><path d="M33.287 31.172a21.694 21.694 0 01-2.17 3.867c-1.14 1.612-2.075 2.728-2.795 3.348-1.116 1.017-2.313 1.538-3.593 1.568-.92 0-2.028-.26-3.319-.786-1.295-.523-2.485-.782-3.573-.782-1.141 0-2.365.259-3.674.782-1.311.526-2.367.8-3.175.828-1.228.051-2.452-.484-3.674-1.61-.78-.674-1.755-1.83-2.924-3.467-1.253-1.748-2.284-3.775-3.092-6.086C.434 26.338 0 23.92 0 21.58c0-2.68.585-4.992 1.755-6.93a10.25 10.25 0 013.677-3.685 9.957 9.957 0 014.97-1.39c.975 0 2.254.3 3.844.887 1.585.59 2.603.889 3.05.889.333 0 1.463-.35 3.38-1.047 1.813-.647 3.343-.914 4.596-.809 3.396.272 5.947 1.599 7.644 3.989-3.037 1.823-4.54 4.377-4.51 7.654.028 2.552.962 4.676 2.799 6.363A9.203 9.203 0 0034 29.318a29.7 29.7 0 01-.713 1.854zM25.5.8c0 2-.738 3.869-2.208 5.597-1.774 2.056-3.92 3.243-6.246 3.056a6.162 6.162 0 01-.047-.758c0-1.92.843-3.976 2.342-5.656.748-.851 1.699-1.559 2.852-2.123C23.343.36 24.432.053 25.456 0a7.2 7.2 0 01.043.8z" fill="#000"/></svg>