<svg fill="currentColor" height="20" viewBox="0 0 24 24" width="20" xmlns="http://www.w3.org/2000/svg" class="prefix__pointer-events-none prefix__text-static-default-low" data-test="generic-card-icon"><path d="M5.25 15a.75.75 0 01.75-.75h4a.75.75 0 010 1.5H6a.75.75 0 01-.75-.75m7.75-.75a.75.75 0 000 1.5h1a.75.75 0 000-1.5h-1"/><path fill-rule="evenodd" d="M4.5 5.25A2.25 2.25 0 002.25 7.5v9a2.25 2.25 0 002.25 2.25h15a2.25 2.25 0 002.25-2.25v-9a2.25 2.25 0 00-2.25-2.25h-15M3.75 7.5a.75.75 0 01.75-.75h15a.75.75 0 01.75.75v1H3.75v-1m0 4v5a.75.75 0 00.75.75h15a.75.75 0 00.75-.75v-5H3.75" clip-rule="evenodd"/></svg>