<svg aria-hidden="true" fill="currentColor" height="24" width="24" xmlns="http://www.w3.org/2000/svg" class="prefix__text-static-default-hi"><path d="M2.25 12A9.75 9.75 0 0112 2.25a9.72 9.72 0 016.75 2.714V3a.75.75 0 011.5 0v3.5A1.25 1.25 0 0119 7.75h-3a.75.75 0 010-1.5h1.916l-.043-.044A8.25 8.25 0 1012 20.25 8.25 8.25 0 0020.25 12a.75.75 0 011.5 0c0 5.385-4.365 9.75-9.75 9.75S2.25 17.385 2.25 12"/><path d="M12 5.75a.75.75 0 01.75.75v.931a3.255 3.255 0 011.194.473c.59.393 1.028 1.027 1.028 1.874a.75.75 0 11-1.5 0c0-.265-.116-.464-.36-.626-.266-.178-.668-.29-1.112-.29-.444 0-.846.112-1.112.29-.244.162-.36.361-.36.626 0 .214.08.37.386.562.317.2.741.348 1.284.538l.19.067c.58.205 1.284.465 1.837.899.599.47 1.025 1.145 1.025 2.1 0 1.432-1.169 2.366-2.5 2.623v.933a.75.75 0 01-1.5 0v-.933c-1.331-.257-2.5-1.191-2.5-2.623a.75.75 0 011.5 0c0 .526.58 1.195 1.75 1.195s1.75-.669 1.75-1.195c0-.433-.164-.695-.45-.92-.333-.26-.81-.452-1.41-.664l-.195-.068c-.51-.177-1.107-.386-1.578-.681-.58-.364-1.09-.936-1.09-1.833 0-.847.44-1.481 1.03-1.874a3.255 3.255 0 011.193-.474V6.5a.75.75 0 01.75-.75"/></svg>