<svg aria-hidden="true" fill="currentColor" height="24" width="24" xmlns="http://www.w3.org/2000/svg" class="prefix__pointer-events-none prefix__absolute prefix__right-10 prefix__z-[1] prefix__h-40 prefix__text-static-default-low"><path fill-rule="evenodd" d="M8.25 4a.75.75 0 00-1.5 0v1.25H4.5A2.25 2.25 0 002.25 7.5v11a2.25 2.25 0 002.25 2.25h15a2.25 2.25 0 002.25-2.25v-11a2.25 2.25 0 00-2.25-2.25h-2.25V4a.75.75 0 00-1.5 0v1.25h-7.5V4m12 5.75V7.5a.75.75 0 00-.75-.75h-2.25V8a.75.75 0 01-1.5 0V6.75h-7.5V8a.75.75 0 01-1.5 0V6.75H4.5a.75.75 0 00-.75.75v2.25h16.5m-16.5 1.5h16.5v7.25a.75.75 0 01-.75.75h-15a.75.75 0 01-.75-.75v-7.25" clip-rule="evenodd"/></svg>