<svg aria-hidden="true" fill="currentColor" height="20" viewBox="0 0 24 24" width="20" xmlns="http://www.w3.org/2000/svg" class="prefix__shrink-0"><path fill-rule="evenodd" d="M2.25 6A1.25 1.25 0 013.5 4.75h10a1.25 1.25 0 011.225 1h2.966a1.25 1.25 0 011.118.691l1.655 3.31h.036A1.25 1.25 0 0121.75 11v5a1.25 1.25 0 01-1.25 1.25h-.854a2.751 2.751 0 01-5.292 0h-3.707a2.751 2.751 0 01-5.293 0H3.5A1.25 1.25 0 012.25 16V6m12.5 8.919a2.751 2.751 0 014.897.832h.603v-4.5l-5.5-.001v3.669m0-5.169v-2.5h2.787l1.25 2.5H14.75m-1.5 6h-2.604a2.751 2.751 0 00-5.292 0H3.75v-9.5h9.5v9.5m-6.5.75a1.25 1.25 0 112.5 0 1.25 1.25 0 01-2.5 0m9 0a1.25 1.25 0 112.5 0 1.25 1.25 0 01-2.5 0" clip-rule="evenodd"/></svg>