<svg aria-hidden="true" fill="currentColor" height="24" width="24" xmlns="http://www.w3.org/2000/svg"
  data-test="icon-sparkles">
  <path fill-rule="evenodd"
    d="M7.5 2.25a.75.75 0 01.75.75c0 1.506.324 2.389.85 2.911.527.524 1.41.839 2.9.839a.75.75 0 010 1.5c-1.483 0-2.37.323-2.898.852-.53.528-.852 1.415-.852 2.898a.75.75 0 01-1.5 0c0-1.482-.325-2.369-.855-2.898-.53-.53-1.417-.852-2.895-.852a.75.75 0 010-1.5c1.483 0 2.369-.315 2.897-.84.527-.521.853-1.405.853-2.91a.75.75 0 01.75-.75m-.001 4.037a3.7 3.7 0 01-1.222 1.218A3.737 3.737 0 017.499 8.73a3.73 3.73 0 011.22-1.225A3.695 3.695 0 017.5 6.287M15 8.25a.75.75 0 01.75.75c0 1.884.47 3.16 1.28 3.97s2.086 1.28 3.97 1.28a.75.75 0 010 1.5c-1.884 0-3.16.47-3.97 1.28s-1.28 2.086-1.28 3.97a.75.75 0 01-1.5 0c0-1.884-.47-3.16-1.28-3.97S10.884 15.75 9 15.75a.75.75 0 010-1.5c1.884 0 3.16-.47 3.97-1.28s1.28-2.086 1.28-3.97a.75.75 0 01.75-.75m0 4.428a5.189 5.189 0 01-.97 1.352 5.189 5.189 0 01-1.352.97 5.189 5.189 0 011.352.97 5.189 5.189 0 01.97 1.352 5.189 5.189 0 01.97-1.352 5.189 5.189 0 011.352-.97 5.189 5.189 0 01-1.352-.97 5.189 5.189 0 01-.97-1.352"
    clip-rule="evenodd" />
</svg>