<svg aria-hidden="true" fill="currentColor" height="24" width="24" xmlns="http://www.w3.org/2000/svg" class="prefix__my-8"><path fill-rule="evenodd" d="M7.5 3.37a5.25 5.25 0 00-5.25 5.25c0 1.694.888 3.038 1.896 4.033l6.932 7.57a1.25 1.25 0 001.844 0l6.932-7.57c1.008-.995 1.896-2.34 1.896-4.033 0-2.9-2.35-5.25-5.25-5.25-1.503 0-2.672.757-3.474 1.423a15.976 15.976 0 00-.8.724 27.034 27.034 0 01-.173.164l-.053.05-.053-.05a27.014 27.014 0 01-.173-.164 15.976 15.976 0 00-.8-.724C10.172 4.127 9.004 3.37 7.5 3.37m4.26 2.558s.006-.005.017-.01a.077.077 0 01-.017.01m.463-.01a.087.087 0 01.017.01l-.017-.01" clip-rule="evenodd"/></svg>