<svg aria-hidden="true" fill="currentColor" height="24" width="24" xmlns="http://www.w3.org/2000/svg"><path fill-rule="evenodd" d="M3.53 2.47a.75.75 0 00-1.06 1.06l18 18a.75.75 0 101.06-1.06l-3.774-3.774c1.787-.986 3.38-2.477 3.957-4.463a.746.746 0 00.008-.439c-.576-2.016-2.197-3.525-4.01-4.515C15.892 6.285 13.77 5.75 12 5.75c-1.33 0-2.862.303-4.313.876L3.53 2.47m5.327 5.327L9.932 8.87a3.751 3.751 0 015.197 5.197l1.517 1.517a10.415 10.415 0 00.346-.18c1.545-.844 2.746-2.012 3.222-3.405-.476-1.393-1.678-2.56-3.222-3.404C15.38 7.715 13.502 7.25 12 7.25c-.951 0-2.053.186-3.143.547m5.174 5.173a2.251 2.251 0 00-3.001-3l3 3" clip-rule="evenodd"/><path d="M2.279 11.794c.43-1.507 1.446-2.73 2.688-3.666L6.04 9.2c-1.071.765-1.883 1.714-2.254 2.8.475 1.393 1.677 2.56 3.222 3.404 1.613.881 3.49 1.346 4.992 1.346a8.94 8.94 0 001.46-.128l1.266 1.265A11.222 11.222 0 0112 18.25c-1.769 0-3.892-.535-5.711-1.53-1.805-.985-3.42-2.484-4.002-4.487a.746.746 0 01-.008-.439"/><path d="M9.348 14.652A3.745 3.745 0 018.29 11.45l1.945 1.945a2.268 2.268 0 00.37.369l1.944 1.945a3.745 3.745 0 01-3.2-1.058"/></svg>