<svg aria-hidden="true" fill="currentColor" height="24" width="24" xmlns="http://www.w3.org/2000/svg" class="prefix__text-static-default-hi"><path d="M12 19a1 1 0 100-2 1 1 0 000 2M10.5 4.75a.75.75 0 000 1.5h3a.75.75 0 000-1.5h-3"/><path fill-rule="evenodd" d="M5.25 5.5A3.25 3.25 0 018.5 2.25h7a3.25 3.25 0 013.25 3.25v13a3.25 3.25 0 01-3.25 3.25h-7a3.25 3.25 0 01-3.25-3.25v-13M8.5 3.75A1.75 1.75 0 006.75 5.5v13a1.75 1.75 0 001.75 1.75h7a1.75 1.75 0 001.75-1.75v-13a1.75 1.75 0 00-1.75-1.75h-7" clip-rule="evenodd"/></svg>